# xmcd
#
# Track frame offsets: 
#        150
#        12498
#        25810
#        39716
#        52533
#        63970
#        76542
#        86999
#        98044
#        108755
#        119375
#        130607
#        141347
#        153679
#        165145
#        175732
#        189256
#        203192
#        218222
#        230070
#        240375
#        249103
#        260097
#        273578
#        284075
#        295355
#        306835
#        318238
#        328287
#        341199
#
# Disc length: 4686 seconds
#
# Revision: 0
# Processed by: cddbd v1.5.2PL0 Copyright (c) Steve Scherf et al.
# Submitted via: ExactAudioCopy v0.99pb4
#
DISCID=ae124c1e
DTITLE=Charles Brown - Groovy
DYEAR=1956
DGENRE=Blues
TTITLE0=It Ain't Gonna Be Like That
TTITLE1=Googie's Boogie
TTITLE2=C.O.D.
TTITLE3=Groovy
TTITLE4=Way Over There By The Cherry Tree
TTITLE5=Bobby Sox Blues
TTITLE6=Jukebox Lil
TTITLE7=Better Watch What You Do
TTITLE8=Peek-a-Boo
TTITLE9=Don't Get Salty Sugar
TTITLE10=Money's Getting Cheaper
TTITLE11=If You Don't Why Don't Ya?
TTITLE12=So There
TTITLE13=Groovy Movie Blues
TTITLE14=Any Old Place With Me
TTITLE15=Alley Batting
TTITLE16=Gee!
TTITLE17=Everybody's Got Troubles
TTITLE18=I Want To Fool Around With You
TTITLE19=Honey Sipper
TTITLE20=I've Been Saving My Love For You
TTITLE21=Walk With Me
TTITLE22=My Heart Is Mended
TTITLE23=Two Hot Lips And Seven Kisses
TTITLE24=Knock Me A Kiss
TTITLE25=I'll Always Be In Love With You
TTITLE26=It's A Sin To Tell A Lie
TTITLE27=There Is No Greater Love
TTITLE28=Get Yourself Another Fool
TTITLE29=All Is Forgiven
EXTD=
EXTT0=
EXTT1=
EXTT2=
EXTT3=
EXTT4=
EXTT5=
EXTT6=
EXTT7=
EXTT8=
EXTT9=
EXTT10=
EXTT11=
EXTT12=
EXTT13=
EXTT14=
EXTT15=
EXTT16=
EXTT17=
EXTT18=
EXTT19=
EXTT20=
EXTT21=
EXTT22=
EXTT23=
EXTT24=
EXTT25=
EXTT26=
EXTT27=
EXTT28=
EXTT29=
PLAYORDER=
